<?xml version="1.0" encoding="UTF-8"?>
<svg id="Layer_2" data-name="Layer 2" xmlns="http://www.w3.org/2000/svg" viewBox="0 0 756.48 474.87">
  <defs>
    <style>
      .cls-1 {
        stroke-width: 0px;
      }
    </style>
  </defs>
  <g id="_3_Layer" data-name="3 – Layer">
    <g>
      <path class="cls-1" d="M495.31,250.66c0,9.02,4.51,13.52,13.53,13.52h27.65c8.81,0,13.22-4.51,13.22-13.52v-27.35c0-9.02-4.41-13.52-13.22-13.52h-27.65c-9.02,0-13.53,4.51-13.53,13.52v27.35Z"/>
      <path class="cls-1" d="M221.81,360.96h118.42c10.82,0,16.23-5.51,16.23-16.53v-21.64c0-10.82-5.41-16.23-16.23-16.23h-118.42c-11.02,0-16.53,5.41-16.53,16.23v21.64c0,11.02,5.51,16.53,16.53,16.53Z"/>
      <path class="cls-1" d="M315.58,209.78h27.35c7.46,0,13.52,6.06,13.52,13.52v27.35c0,7.46-6.06,13.52-13.52,13.52h-27.35c-7.46,0-13.53-6.06-13.53-13.53v-27.35c0-7.46,6.06-13.53,13.53-13.53Z"/>
      <path class="cls-1" d="M205.28,223.31v27.35c0,9.02,4.51,13.52,13.52,13.52h27.65c8.81,0,13.22-4.51,13.22-13.52v-27.35c0-9.02-4.41-13.52-13.22-13.52h-27.65c-9.02,0-13.52,4.51-13.52,13.52Z"/>
      <path class="cls-1" d="M163.2,223.31c0-9.02-4.51-13.52-13.52-13.52h-27.65c-8.82,0-13.22,4.51-13.22,13.52v27.35c0,9.02,4.4,13.52,13.22,13.52h27.65c9.02,0,13.52-4.51,13.52-13.52v-27.35Z"/>
      <path class="cls-1" d="M122.02,360.96h27.65c9.02,0,13.52-4.51,13.52-13.53v-27.65c0-8.81-4.51-13.22-13.52-13.22h-27.65c-8.82,0-13.22,4.41-13.22,13.22v27.65c0,9.02,4.4,13.53,13.22,13.53Z"/>
      <rect class="cls-1" x="592.08" y="209.78" width="54.4" height="54.4" rx="13.52" ry="13.52"/>
      <path class="cls-1" d="M732.74,23.29c-15.83-15.52-39.37-23.29-70.63-23.29h-44.17c-4.3,0-8.33,2.11-10.74,5.67-3.23,4.77-6.74,9.34-10.52,13.68-2.04,2.34-4.15,4.6-6.32,6.79-8.2,8.24-2.45,22.25,9.17,22.25h61.68c14.83,0,26.34,3.96,34.56,11.87,8.21,7.92,12.32,19.69,12.32,35.32v283.42c0,15.63-4.11,27.45-12.32,35.46-8.22,8.02-19.74,12.02-34.56,12.02H94.97c-15.03,0-26.55-4.01-34.56-12.02-8.02-8.01-12.02-19.84-12.02-35.46V95.58c0-15.63,4.01-27.4,12.02-35.32.43-.42.86-.83,1.31-1.23,3.12-2.79,4.9-6.8,4.56-10.97-.58-7.16-.88-14.53-.88-22.13,0-1.9.02-3.82.05-5.75.18-9.31-9.21-15.82-17.85-12.34-9.39,3.78-17.4,8.93-24.01,15.45C7.86,38.82,0,62.02,0,92.87v288.83c0,31.06,7.86,54.35,23.59,69.88,15.73,15.53,39.32,23.29,70.78,23.29h567.74c31.26,0,54.8-7.81,70.63-23.44,15.83-15.63,23.74-38.87,23.74-69.73V92.87c0-30.85-7.92-54.05-23.74-69.58Z"/>
      <path class="cls-1" d="M412.05,209.78c-8.82,0-13.22,4.51-13.22,13.52v27.35c0,9.02,4.41,13.52,13.22,13.52h27.65c9.02,0,13.52-4.51,13.52-13.52v-27.35c0-9.02-4.51-13.52-13.52-13.52h-27.65Z"/>
      <path class="cls-1" d="M605.61,360.96h27.35c9.02,0,13.52-4.51,13.52-13.53v-27.65c0-8.81-4.51-13.22-13.52-13.22h-27.35c-9.02,0-13.52,4.41-13.52,13.22v27.65c0,9.02,4.51,13.53,13.52,13.53Z"/>
      <path class="cls-1" d="M415.36,360.96h118.42c10.82,0,16.23-5.51,16.23-16.53v-21.64c0-10.82-5.41-16.23-16.23-16.23h-118.42c-11.02,0-16.53,5.41-16.53,16.23v21.64c0,11.02,5.51,16.53,16.53,16.53Z"/>
    </g>
  </g>
</svg>