<?xml version="1.0" encoding="UTF-8"?>
<svg id="Layer_2" data-name="Layer 2" xmlns="http://www.w3.org/2000/svg" viewBox="0 0 543.07 503.78">
  <defs>
    <style>
      .cls-1 {
        stroke-width: 0px;
      }
    </style>
  </defs>
  <g id="_3_Layer" data-name="3 – Layer">
    <path class="cls-1" d="M0,362.3C0,254.39,66.04,95.86,147.32,4.39c4.08-4.59,10.8-5.73,16.15-2.7l36.97,20.92c7.06,4,8.77,13.4,3.58,19.64-77.25,92.89-130.54,216.11-131.06,305.75,0,61.74,24.92,86.73,86.32,86.73h67.41c7.18,0,13,5.82,13,13v43.05c0,7.18-5.82,13-13,13h-73.25C50.79,503.78,0,456.42,0,362.3Z"/>
    <path class="cls-1" d="M311.46,316.01h0c.42,0,.83.09,1.22.27,7.76,3.55,22.47,6.1,35.7,5.78,40.98.27,69.53-24.32,69.8-63.82-.27-37.15-28.95-60.59-72.55-60.59h-57.07c-7.18,0-13-5.82-13-13v-43.06c0-7.18,5.82-13,13-13h66.4c81.15,0,133.15,47.09,133.62,120.79-.46,64.67-38.55,108.19-96.19,114.47-1.57.17-2.74,1.53-2.63,3.11,2.78,40.43,45.47,67.77,105.74,67.77h34.56c7.18,0,13,5.82,13,13v43.06c0,7.18-5.82,13-13,13h-35.1c-111.83,0-178.36-64.32-186.43-184.65-.11-1.69,1.23-3.12,2.92-3.12Z"/>
  </g>
</svg>