<?xml version="1.0" encoding="UTF-8"?>
<svg id="Layer_2" data-name="Layer 2" xmlns="http://www.w3.org/2000/svg" viewBox="0 0 19.16 21.25">
  <defs>
    <style>
      .cls-1 {
        fill: #447ec1;
      }

      .cls-1, .cls-2 {
        stroke-width: 0px;
      }

      .cls-2 {
        fill: #231f20;
      }
    </style>
  </defs>
  <g id="Layer_1-2" data-name="Layer 1">
    <g>
      <path class="cls-1" d="M14.98,21.25c-.58,0-1.12-.11-1.62-.33-.51-.22-.95-.52-1.33-.9-.38-.38-.68-.83-.9-1.33-.22-.5-.33-1.04-.33-1.62s.11-1.12.33-1.62c.22-.51.52-.95.9-1.33.38-.38.83-.68,1.33-.9.51-.22,1.05-.33,1.62-.33s1.12.11,1.62.33c.51.22.95.52,1.33.9.38.38.68.83.9,1.33.22.51.33,1.05.33,1.62s-.11,1.12-.33,1.62c-.22.5-.52.95-.9,1.33-.38.38-.83.68-1.33.9-.51.22-1.05.33-1.62.33ZM14.52,19.07c.07,0,.14-.02.19-.05s.11-.08.15-.15l1.93-3.04s.05-.08.07-.13c.02-.05.03-.09.03-.14,0-.1-.04-.17-.11-.23s-.15-.08-.24-.08c-.12,0-.22.06-.3.19l-1.75,2.81-.83-1.07c-.05-.07-.1-.11-.15-.14-.05-.02-.1-.04-.16-.04-.09,0-.17.03-.23.1-.06.07-.09.15-.09.24,0,.05,0,.09.03.14.02.05.04.09.07.13l1.03,1.26c.05.07.11.12.17.15.06.03.12.05.19.05Z"/>
      <path class="cls-2" d="M9.24,17.07H2.72c-.44,0-.77-.11-.99-.34-.23-.22-.34-.54-.34-.95,0-.38.13-.69.38-.93.26-.23.6-.35,1.03-.35h7.05c.28-.55.63-1.04,1.07-1.48.52-.52,1.13-.93,1.81-1.22.56-.24,1.15-.38,1.76-.43V2.7c0-.9-.22-1.57-.67-2.02-.45-.45-1.11-.68-2-.68H2.67C1.78,0,1.11.23.67.68c-.45.45-.67,1.13-.67,2.03v13.09c0,.88.22,1.55.66,1.99.44.44,1.1.67,1.98.67h6.77c-.11-.45-.17-.91-.17-1.39ZM5.96,3.14c0-.13.11-.24.24-.24h1.11c.13,0,.24.11.24.24v5.13h.06c.47-.63,1.22-1.05,1.9-1.05.13,0,.24.11.24.24l.04.96c0,.12-.09.23-.21.24h-.02c-.95,0-1.98.98-2.11,1.95-.02.12-.12.21-.24.21h-1.02c-.13,0-.24-.11-.24-.24V3.14ZM1.97,1.83c0-.14.05-.25.15-.35.1-.09.21-.14.34-.14s.25.05.35.14c.1.09.15.21.15.35v10.88c0,.14-.05.26-.15.35-.1.1-.22.15-.35.15s-.25-.05-.34-.15c-.1-.1-.15-.22-.15-.35V1.83Z"/>
    </g>
  </g>
</svg>