<?xml version="1.0" encoding="UTF-8"?>
<svg id="Layer_2" data-name="Layer 2" xmlns="http://www.w3.org/2000/svg" viewBox="0 0 34.87 25.35">
  <defs>
    <style>
      .cls-1 {
        fill: #231f20;
        stroke-width: 0px;
      }
    </style>
  </defs>
  <g id="Layer_1-2" data-name="Layer 1">
    <g>
      <path class="cls-1" d="M11.18,3.82c-.21-.56-.6-.84-1.17-.84s-.96.28-1.16.84l-2.73,7.35c-.07.2-.09.39-.04.57.04.18.13.33.27.44s.31.17.53.17c.41,0,.69-.23.84-.7l.68-1.95h3.26l.68,1.95c.16.47.44.7.84.7.22,0,.4-.06.54-.17s.23-.26.27-.44c.04-.18.02-.37-.05-.57l-2.74-7.35ZM8.84,8.33l1.17-3.41,1.17,3.41h-2.34Z"/>
      <path class="cls-1" d="M34.3,7.71c-.38-.68-.92-1.21-1.62-1.57-.69-.36-1.51-.54-2.44-.54h-10.23v-1.01c0-.97-.18-1.79-.55-2.48-.37-.68-.9-1.21-1.59-1.57-.69-.36-1.52-.54-2.49-.54H4.63c-.93,0-1.74.18-2.44.54-.69.36-1.23.88-1.62,1.57s-.58,1.51-.58,2.48v6.55c0,.97.19,1.79.58,2.47s.92,1.2,1.62,1.56c.69.36,1.51.54,2.44.54h.45v2.66c0,.42.1.76.31,1.01.21.25.5.38.89.38.27,0,.52-.07.74-.22.22-.15.5-.37.83-.65l3.7-3.17h3.3v1.02c0,.97.18,1.79.55,2.48.37.68.9,1.2,1.59,1.56.69.36,1.53.54,2.49.54h3.81l3.71,3.17c.33.29.61.51.83.65.22.15.47.22.74.22.38,0,.67-.13.88-.38.21-.25.31-.59.31-1.01v-2.66h.47c.93,0,1.74-.18,2.44-.54.69-.36,1.23-.88,1.62-1.56.38-.68.58-1.5.58-2.47v-6.55c0-.97-.19-1.79-.58-2.48ZM18.23,5.72c-.45.09-.86.23-1.23.42-.69.36-1.22.88-1.59,1.57-.37.68-.55,1.51-.55,2.48v3.87h-3.24c-.3,0-.54.04-.72.11-.18.07-.37.21-.59.4l-3.57,3.19v-2.8c0-.31-.08-.54-.24-.68-.16-.14-.37-.22-.61-.22h-1.16c-.92,0-1.65-.25-2.17-.75s-.78-1.24-.78-2.22v-6.44c0-.98.26-1.71.78-2.22s1.24-.75,2.17-.75h10.55c.92,0,1.65.25,2.17.75s.78,1.24.78,2.22v1.08ZM24.67,17.32c0,.25-.2.45-.45.45h-1.25c-1.92,0-2.92-.9-2.92-2.65,0-1.88,1.13-4.64,2.59-6.36.14-.16.37-.2.56-.09l.7.4c.24.13.3.45.13.66-1.25,1.57-2.08,3.53-2.08,4.99,0,.98.37,1.33,1.33,1.33h.93c.25,0,.45.2.45.45v.82ZM30.47,17.32c0,.25-.2.45-.45.45h-.54c-2.15,0-3.47-1.12-3.59-3.34l.06-.1c.12.07.36.12.63.11.61,0,1.04-.33,1.04-.9,0-.59-.47-.93-1.19-.93h-.76c-.25,0-.45-.2-.45-.45v-.82c0-.25.2-.45.45-.45h.98c1.65,0,2.66.85,2.69,2.27-.02.82-.38,1.42-.99,1.75-.24.13-.33.44-.17.65.24.3.7.48,1.35.48h.48c.25,0,.45.2.45.45v.82Z"/>
    </g>
  </g>
</svg>